<svg width="23" height="30" viewBox="0 0 23 30" fill="none" xmlns="http://www.w3.org/2000/svg">
<path fill-rule="evenodd" clip-rule="evenodd" d="M1.75 0.68892C0.247 1.08192 0 2.41492 0 10.1229C0 19.6589 0.982 22.7929 5.203 26.7349C9.114 30.3859 13.089 30.6369 16.854 27.4689C21.918 23.2079 23 20.1629 23 10.1659C23 1.74792 22.87 1.19892 20.75 0.62992C18.206 -0.0510803 4.42 -0.00908035 1.75 0.68892Z" fill="#FBCA01"/>
<path fill-rule="evenodd" clip-rule="evenodd" d="M3.00005 0.892085C0.619046 1.55208 0.486046 1.98608 0.207046 9.98008C-0.116954 19.2441 0.801046 22.4771 4.85905 26.3651C9.03905 30.3701 12.976 30.7321 16.854 27.4691C21.917 23.2091 23 20.1621 23 10.1751V1.25008L19.875 0.625085C15.914 -0.166915 6.27205 -0.014915 3.00005 0.892085ZM11 7.00008C11 10.3601 9.07105 10.9951 6.88005 8.35608C5.66105 6.88708 5.77105 6.79308 7.90405 7.47008C9.99105 8.13208 10.223 7.96108 9.74005 6.11408C9.43605 4.95108 9.59505 4.00008 10.094 4.00008C10.592 4.00008 11 5.35008 11 7.00008ZM10 12.4411C10 12.6841 9.55005 13.1601 9.00005 13.5001C8.45005 13.8401 8.00005 13.6411 8.00005 13.0591C8.00005 12.4771 8.45005 12.0001 9.00005 12.0001C9.55005 12.0001 10 12.1981 10 12.4411ZM6.25005 14.6621C5.56305 14.9401 4.43805 14.9401 3.75005 14.6621C3.06305 14.3851 3.62505 14.1581 5.00005 14.1581C6.37505 14.1581 6.93805 14.3851 6.25005 14.6621ZM22 17.0001C22 17.5501 21.802 18.0001 21.559 18.0001C21.316 18.0001 20.84 17.5501 20.5 17.0001C20.16 16.4501 20.359 16.0001 20.941 16.0001C21.523 16.0001 22 16.4501 22 17.0001ZM20.457 19.9311C20.774 20.4431 20.622 21.1151 20.121 21.4251C19.62 21.7351 18.952 21.3161 18.636 20.4941C18.014 18.8741 19.517 18.4091 20.457 19.9311ZM18.5 23.0001C19.282 24.2661 17.958 24.2661 16 23.0001C14.707 22.1651 14.734 22.0291 16.191 22.0151C17.121 22.0071 18.16 22.4501 18.5 23.0001ZM14.573 27.5211C13.513 28.3231 12.401 28.7351 12.102 28.4351C11.474 27.8081 14.014 26.0231 15.5 26.0471C16.05 26.0561 15.633 26.7201 14.573 27.5211Z" fill="#D8AF0E"/>
<path fill-rule="evenodd" clip-rule="evenodd" d="M2.75 1.16193C0.0450001 2.14993 0 2.30593 0 10.6489C0 15.3139 0.505 20.1139 1.122 21.3159C3.078 25.1229 7.184 28.8809 10.082 29.5179C13.757 30.3249 16.407 28.8019 20.031 23.7979C22.812 19.9589 23 19.1159 23 10.4749V1.24993L19.875 0.624926C15.302 -0.290074 5.919 0.0049262 2.75 1.16193ZM11 7.15193C11 10.0019 10.886 10.0699 7.25 9.41293C2.303 8.51793 2.045 8.14093 5.856 7.37893C8.198 6.90993 8.768 6.42493 8.025 5.52993C6.783 4.03393 7.703 2.94893 9.598 3.67593C10.369 3.97193 11 5.53593 11 7.15193ZM6 5.50993C6 6.57193 3.063 6.60793 2.658 5.54993C2.311 4.64593 2.761 4.38593 4.075 4.72993C5.134 5.00693 6 5.35793 6 5.50993ZM11.793 11.5349C14.263 11.3709 15.013 11.6929 14.793 12.8249C14.632 13.6549 13.875 14.5419 13.111 14.7969C12.313 15.0629 12 14.8079 12.377 14.1989C12.738 13.6149 12.516 12.8189 11.885 12.4289C11.253 12.0379 10.324 12.4569 9.819 13.3599C9.258 14.3619 7.656 14.9859 5.7 14.9649C2.697 14.9309 2.63 14.8539 4.603 13.7149C5.813 13.0159 6.487 11.8619 6.191 10.9999C5.787 9.82593 5.982 9.74493 7.087 10.6269C7.864 11.2469 9.982 11.6549 11.793 11.5349ZM12.341 17.2499C12.681 18.0889 13.119 18.1599 13.674 17.4639C14.855 15.9819 22 15.5739 22 16.9889C22 19.7919 17.206 26.2639 13.75 28.1269C10.925 29.6499 11.745 27.6299 14.75 25.6629L17.5 23.8619L14.75 24.4499C13.238 24.7739 12 24.6279 12 24.1259C12 23.0259 14.452 21.9999 17.082 21.9999C18.137 21.9999 19 21.5499 19 20.9999C19 19.5749 14.641 19.7609 13.141 21.2499C12.131 22.2519 12.008 22.1689 12.517 20.8299C12.979 19.6169 12.537 19.0689 10.905 18.8299C9.668 18.6479 8.471 17.9379 8.245 17.2499C7.703 15.6049 11.673 15.6049 12.341 17.2499ZM15 18.0189C13.869 18.7349 14.285 18.9729 16.691 18.9849C18.446 18.9929 20.101 18.6449 20.369 18.2119C21.081 17.0599 16.758 16.9039 15 18.0189Z" fill="#8D7109"/>
<path fill-rule="evenodd" clip-rule="evenodd" d="M5 1.11003C3.718 2.03203 3.745 2.11003 5.185 1.65103C6.112 1.35503 7.089 1.65003 7.356 2.30603C7.624 2.96303 7.878 2.71203 7.921 1.75003C8.011 -0.249968 7.152 -0.438968 5 1.11003ZM16.813 0.683032C17.534 0.972032 18.397 0.936032 18.729 0.604032C19.061 0.272032 18.471 0.0360321 17.417 0.0790321C16.252 0.127032 16.015 0.364032 16.813 0.683032ZM12.2 2.20003C11.54 2.86003 11 4.66003 11 6.20003C11 8.52003 11.429 9.00003 13.5 9.00003C15.69 9.00003 16 9.43303 16 12.5C16 15.833 16.167 16 19.5 16H23V10.5C23 7.47503 22.55 5.00003 22 5.00003C21.45 5.00003 20.948 3.98803 20.884 2.75003C20.797 1.06703 20.653 0.939032 20.312 2.24403C19.972 3.54203 18.977 3.92503 16.419 3.74403C14.149 3.58303 13.145 3.07603 13.46 2.25003C14.058 0.683032 13.73 0.670032 12.2 2.20003ZM0.0790036 4.25003C0.132004 5.75303 0.347004 6.00203 0.729004 5.00003C1.043 4.17503 1.795 3.16903 2.4 2.76503C3.078 2.31203 2.829 2.02503 1.75 2.01503C0.574004 2.00503 0.0260036 2.73803 0.0790036 4.25003ZM2.441 7.55503C0.577004 9.04903 0.589004 9.06703 2.75 8.02003C3.988 7.42003 5 6.72003 5 6.46503C5 5.70003 4.481 5.92103 2.441 7.55503ZM1 11C0.175004 11.533 -0.0499964 11.969 0.500004 11.969C1.05 11.969 2.175 11.533 3 11C3.825 10.467 4.05 10.031 3.5 10.031C2.95 10.031 1.825 10.467 1 11ZM10.295 13.518C9.349 15.226 9.535 15.705 11.507 16.635C13.457 17.555 13.913 17.443 14.305 15.942C14.613 14.764 14.328 14.32 13.474 14.648C12.759 14.923 12.004 14.327 11.794 13.323C11.439 11.626 11.336 11.639 10.295 13.518ZM1.75 14.08C-3.051 16.876 3.402 28.13 10.635 29.577C13.043 30.059 14.279 29.631 16.587 27.519L19.5 24.854L16.262 27.106C12.466 29.746 10.399 28.72 13.861 25.914C15.159 24.861 15.812 24 15.311 24C14.81 24 13.86 24.54 13.2 25.2C12.267 26.133 12 26.029 12 24.729C12 23.72 13.289 22.651 15.25 22.032L18.5 21.007L15.293 21.47C12.722 21.841 11.499 21.345 9.12 18.966C7.489 17.335 5.164 16 3.954 16C2.113 16 1.958 15.756 3 14.5C4.445 12.759 4.174 12.668 1.75 14.08ZM20.564 21.707C20.022 23.132 20.136 23.247 21.124 22.267C21.808 21.588 22.115 20.781 21.807 20.474C21.499 20.166 20.94 20.721 20.564 21.707Z" fill="#584709"/>
<path fill-rule="evenodd" clip-rule="evenodd" d="M11.332 5.42304C11.699 6.38004 12 7.57704 12 8.08204C12 8.58704 12.9 9.00004 14 9.00004C15.626 9.00004 16 9.66704 16 12.563C16 15.981 16.133 16.114 19.25 15.813C22.319 15.517 22.518 15.255 22.814 11.114C22.987 8.70204 22.727 6.32704 22.238 5.83804C21.748 5.34804 18.943 4.66204 16.005 4.31404C11.203 3.74504 10.731 3.85704 11.332 5.42304ZM9.99998 14.393C9.99998 16.089 12.704 17.287 13.527 15.956C13.852 15.43 13.39 15 12.5 15C11.61 15 11.16 14.55 11.5 14C11.84 13.45 11.641 13 11.059 13C10.477 13 9.99998 13.627 9.99998 14.393ZM0.0329786 17.75C0.0819786 20.298 5.18298 27.282 8.04298 28.715C10.45 29.921 10.506 29.857 10.801 25.569C11.049 21.961 10.646 20.737 8.50498 18.596C5.39998 15.49 -0.0200214 14.949 0.0329786 17.75Z" fill="#E2001B"/>
<path fill-rule="evenodd" clip-rule="evenodd" d="M11.194 5.0951C11.493 6.0031 13.485 6.6071 16.829 6.8021C22.282 7.1211 24.138 9.0001 19 9.0001C16.667 9.0001 16 9.4441 16 11.0001C16 12.5561 16.667 13.0001 19 13.0001C23.025 13.0001 22.835 14.7591 18.75 15.3171L15.5 15.7611L19 15.6311C22.397 15.5041 22.509 15.3711 22.814 11.1141C22.987 8.7021 22.727 6.3271 22.238 5.8381C21.748 5.3481 18.958 4.6641 16.038 4.3181C11.736 3.8091 10.818 3.9561 11.194 5.0951ZM9.99999 14.3931C9.99999 16.0891 12.704 17.2871 13.527 15.9561C13.852 15.4301 13.39 15.0001 12.5 15.0001C11.61 15.0001 11.16 14.5501 11.5 14.0001C11.84 13.4501 11.641 13.0001 11.059 13.0001C10.477 13.0001 9.99999 13.6271 9.99999 14.3931ZM0.179991 18.2501C0.453991 20.1751 1.00599 20.4501 3.99999 20.1551C8.19099 19.7411 8.21499 19.7241 7.41699 17.6431C6.99999 16.5571 5.61299 16.0001 3.32299 16.0001C0.304991 16.0001 -0.0980087 16.2881 0.179991 18.2501ZM1.99999 21.9231C1.99999 23.6621 6.97499 28.7601 9.23799 29.3401C11.433 29.9031 11.426 29.8631 8.99999 27.9821C6.50099 26.0451 6.50099 26.0441 8.74999 26.0221C10.477 26.0051 11 25.4191 11 23.5001C11 21.2041 10.633 21.0001 6.49999 21.0001C4.02499 21.0001 1.99999 21.4151 1.99999 21.9231Z" fill="#B10215"/>
<path fill-rule="evenodd" clip-rule="evenodd" d="M11.194 5.0951C11.506 6.0411 13.591 6.6001 17.579 6.8051C25.051 7.1901 23.845 5.2431 16.038 4.3181C11.735 3.8091 10.818 3.9561 11.194 5.0951ZM19.25 9.7231C14.669 10.2921 14.876 13.0001 19.5 13.0001C22.333 13.0001 23 12.6191 23 11.0001C23 9.9001 22.887 9.0721 22.75 9.1601C22.613 9.2481 21.038 9.5021 19.25 9.7231ZM10 14.3931C10 16.0891 12.704 17.2871 13.527 15.9561C13.852 15.4301 13.39 15.0001 12.5 15.0001C11.61 15.0001 11.16 14.5501 11.5 14.0001C11.84 13.4501 11.641 13.0001 11.059 13.0001C10.477 13.0001 10 13.6271 10 14.3931ZM0 17.9411C0 19.0091 0.52 20.2031 1.155 20.5951C1.87 21.0381 2.038 20.8701 1.595 20.1551C1.108 19.3651 1.998 19.0001 4.41 19.0001C7.134 19.0001 7.806 18.6591 7.362 17.5001C7.006 16.5741 5.487 16.0001 3.393 16.0001C0.701 16.0001 0 16.4011 0 17.9411ZM2.872 23.7611C3.391 24.7301 4.869 26.4171 6.157 27.5111L8.5 29.5001L6.595 27.2501L4.69 25.0001H7.845C9.983 25.0001 11 24.5161 11 23.5001C11 22.3871 9.829 22.0001 6.465 22.0001C2.444 22.0001 2.037 22.2001 2.872 23.7611Z" fill="#270609"/>
<path fill-rule="evenodd" clip-rule="evenodd" d="M12 5.00007C12 5.55007 14.137 5.95507 16.75 5.90007C20.621 5.81907 21.038 5.65307 19 5.00007C15.386 3.84307 12 3.84307 12 5.00007ZM16 11.0001C16 11.5501 17.35 12.0001 19 12.0001C20.65 12.0001 22 11.5501 22 11.0001C22 10.4501 20.65 10.0001 19 10.0001C17.35 10.0001 16 10.4501 16 11.0001ZM9.99999 15.0311C9.99999 15.5641 10.675 16.0001 11.5 16.0001C12.325 16.0001 13 15.8231 13 15.6071C13 15.3911 12.325 14.9551 11.5 14.6381C10.675 14.3221 9.99999 14.4991 9.99999 15.0311ZM0.693989 16.6391C-0.516011 17.8501 1.12399 19.0001 4.05899 19.0001C6.00699 19.0001 6.99999 18.4931 6.99999 17.5001C6.99999 15.9881 2.02499 15.3091 0.693989 16.6391ZM3.24399 23.2501C3.46999 23.9381 5.30699 24.6401 7.32699 24.8101C10.121 25.0461 11 24.7471 11 23.5601C11 22.4011 9.94999 22.0001 6.91699 22.0001C4.09799 22.0001 2.95999 22.3871 3.24399 23.2501Z" fill="black"/>
</svg>
